<svg width="300" height="300" viewBox="0 0 300 300" fill="none" xmlns="http://www.w3.org/2000/svg">
<g clip-path="url(#clip0_424_819)">
<path d="M146.646 151.153C146.646 129.119 164.533 111.232 186.567 111.232C208.6 111.232 226.488 129.119 226.488 151.153C226.488 173.186 208.6 191.074 186.567 191.074C164.533 191.074 146.646 173.186 146.646 151.153Z" fill="#1ABCFE"/>
<path d="M66.9219 229.484C66.9219 207.451 84.8093 189.563 106.843 189.563H146.764V229.484C146.764 251.518 128.876 269.405 106.843 269.405C84.8093 269.405 66.9219 251.518 66.9219 229.484Z" fill="#0ACF83"/>
<path d="M146.646 30.1194V109.843H186.567C208.6 109.843 226.488 91.9555 226.488 69.9219C226.488 47.8884 208.6 30.001 186.567 30.001H146.646V30.1194Z" fill="#FF7262"/>
<path d="M66.9219 70.0494C66.9219 92.0829 84.8093 109.97 106.843 109.97H146.764V30.2469H106.843C84.8093 30.1285 66.9219 48.0159 66.9219 70.0494Z" fill="#F24E1E"/>
<path d="M66.9219 151.035C66.9219 173.068 84.8093 190.955 106.843 190.955H146.764V111.232H106.843C84.8093 111.114 66.9219 129.001 66.9219 151.035Z" fill="#A259FF"/>
</g>
<defs>
<clipPath id="clip0_424_819">
<rect width="166.154" height="240" fill="white" transform="translate(66.9229 30)"/>
</clipPath>
</defs>
</svg>
