<svg width="300" height="300" viewBox="0 0 300 300" fill="none" xmlns="http://www.w3.org/2000/svg">
<path fill-rule="evenodd" clip-rule="evenodd" d="M34.0439 198.501C18.0387 182.629 18.0387 156.89 34.0439 141.019L77.5263 97.9042C91.0622 84.4857 111.702 82.411 127.435 91.6803C132.305 94.5443 132.262 101.12 128.257 105.094C124.257 109.061 117.723 108.72 112.289 107.142C105.334 105.126 97.5101 106.838 92.0222 112.277L48.5398 155.392C40.5346 163.328 40.5346 176.192 48.5398 184.133C56.5451 192.069 69.521 192.069 77.5263 184.133L164.491 97.9042C180.502 82.0324 206.459 82.0324 222.469 97.9042L265.952 141.019C281.962 156.89 281.962 182.629 265.952 198.501C249.941 214.373 223.984 214.373 207.973 198.501L193.483 184.133L175.366 202.095C161.83 215.514 141.19 217.589 125.457 208.319C120.587 205.455 120.63 198.879 124.635 194.911C128.635 190.938 135.169 191.28 140.603 192.858C147.558 194.874 155.382 193.162 160.87 187.722L179.504 169.248C187.221 161.594 199.739 161.594 207.456 169.248L222.469 184.133C230.474 192.069 243.45 192.069 251.456 184.133C259.461 176.192 259.461 163.328 251.456 155.392L207.973 112.277C199.968 104.342 186.992 104.342 178.987 112.277L92.0222 198.501C76.0116 214.378 50.0545 214.378 34.0439 198.501Z" fill="black"/>
</svg>
