<svg width="300" height="300" viewBox="0 0 300 300" fill="none" xmlns="http://www.w3.org/2000/svg">
<path d="M235.355 24H64.6452C42.1974 24 24 42.1974 24 64.6452V235.355C24 257.803 42.1974 276 64.6452 276H235.355C257.803 276 276 257.803 276 235.355V64.6452C276 42.1974 257.803 24 235.355 24Z" fill="#FFD02F"/>
<path fill-rule="evenodd" clip-rule="evenodd" d="M194.716 64.6406H170.329L190.651 101.221L145.942 64.6406H121.554L143.909 109.35L97.1674 64.6406H72.7803L97.1674 121.544L72.7803 235.35H97.1674L143.909 113.415L121.554 235.35H145.942L190.651 105.286L170.329 235.35H194.716L239.425 93.0922L194.716 64.6406Z" fill="#050038"/>
</svg>
