<svg width="300" height="300" viewBox="0 0 300 300" fill="none" xmlns="http://www.w3.org/2000/svg">
<path d="M267.126 143.053L160.344 36.2711L149.995 25.9297L32.8716 143.053C29.0428 146.892 29.0428 153.107 32.8716 156.939L106.309 230.374L149.995 274.07L267.126 156.939C270.958 153.107 270.958 146.892 267.126 143.053ZM149.995 186.677L113.317 150.001L149.995 113.313L186.681 150.001L149.995 186.677Z" fill="#2684FF"/>
<path d="M149.977 113.29C125.964 89.2665 125.841 50.3583 149.721 26.1938L69.4404 106.444L113.137 150.14L149.977 113.29Z" fill="url(#paint0_linear_424_853)"/>
<path d="M186.783 149.868L149.995 186.648C161.588 198.23 168.109 213.951 168.109 230.344C168.109 246.736 161.588 262.448 149.995 274.041L230.47 193.564L186.783 149.868Z" fill="url(#paint1_linear_424_853)"/>
<defs>
<linearGradient id="paint0_linear_424_853" x1="134.211" y1="85.4033" x2="92.2032" y2="127.4" gradientUnits="userSpaceOnUse">
<stop stop-color="#0052CC"/>
<stop offset="1" stop-color="#2684FF"/>
</linearGradient>
<linearGradient id="paint1_linear_424_853" x1="166.215" y1="214.136" x2="208.138" y2="172.212" gradientUnits="userSpaceOnUse">
<stop stop-color="#0052CC"/>
<stop offset="1" stop-color="#2684FF"/>
</linearGradient>
</defs>
</svg>
