<svg width="300" height="300" viewBox="0 0 300 300" fill="none" xmlns="http://www.w3.org/2000/svg">
<path d="M43.5996 63.0976C43.5996 52.3289 52.3294 43.5991 63.0982 43.5991H139.368C150.137 43.5991 158.867 52.3289 158.867 63.0977V78.1836C158.867 83.5679 154.502 87.9328 149.118 87.9328H53.3488C47.9645 87.9328 43.5996 83.5679 43.5996 78.1836V63.0976Z" fill="#262626"/>
<path d="M43.5996 124.282C43.5996 118.898 47.9645 114.533 53.3488 114.533H236.902C247.671 114.533 256.401 123.263 256.401 134.032V184.585C256.401 189.969 252.036 194.334 246.652 194.334H63.0982C52.3294 194.334 43.5996 185.603 43.5996 174.835V124.282Z" fill="#262626"/>
<path d="M141.134 230.683C141.134 225.299 145.499 220.934 150.883 220.934H246.652C252.036 220.934 256.401 225.299 256.401 230.683V236.902C256.401 247.671 247.671 256.401 236.902 256.401H160.633C149.864 256.401 141.134 247.671 141.134 236.902V230.683Z" fill="#262626"/>
</svg>
