<svg width="300" height="300" viewBox="0 0 300 300" fill="none" xmlns="http://www.w3.org/2000/svg">
<path d="M238.542 162.168C238.542 164.325 237.693 166.394 236.184 167.919C234.674 169.445 232.627 170.302 230.492 170.302C228.358 170.302 226.31 169.445 224.8 167.919C223.291 166.394 222.443 164.325 222.443 162.168V89.4979C222.443 87.3406 223.291 85.2716 224.8 83.7461C226.31 82.2207 228.358 81.3637 230.492 81.3637C232.627 81.3637 234.674 82.2207 236.184 83.7461C237.693 85.2716 238.542 87.3406 238.542 89.4979V162.168ZM235.748 212.519C234.683 213.594 204.748 238.804 149.867 238.804C94.9862 238.804 65.2508 213.729 63.9869 212.653C63.1903 211.974 62.5342 211.143 62.0562 210.208C61.5781 209.272 61.2875 208.251 61.2009 207.202C61.1144 206.153 61.2337 205.097 61.552 204.094C61.8702 203.091 62.3811 202.162 63.0555 201.359C64.4448 199.735 66.4133 198.732 68.5318 198.568C70.6502 198.404 72.7468 199.093 74.3643 200.486C74.83 200.822 101.572 222.737 149.801 222.737C198.029 222.737 224.971 200.687 225.237 200.486C226.873 199.106 228.976 198.426 231.1 198.588C233.224 198.752 235.202 199.746 236.612 201.359C237.97 202.959 238.647 205.037 238.497 207.139C238.348 209.241 237.383 211.198 235.814 212.586L235.748 212.519ZM61.1264 89.4979C61.2467 87.3337 62.2099 85.3057 63.8054 83.8571C65.4009 82.4084 67.4991 81.657 69.6413 81.767C71.6271 81.881 73.501 82.734 74.9013 84.1616C76.3017 85.5891 77.1294 87.4901 77.2248 89.4979V162.033C77.2248 164.19 76.3767 166.26 74.8672 167.785C73.3577 169.31 71.3104 170.167 69.1756 170.167C67.0408 170.167 64.9935 169.31 63.484 167.785C61.9744 166.26 61.1264 164.19 61.1264 162.033V89.4979ZM101.505 73.364C101.625 71.1998 102.589 69.1718 104.185 67.7232C105.78 66.2745 107.878 65.5231 110.02 65.6332C112.006 65.7471 113.88 66.6001 115.28 68.0277C116.68 69.4552 117.509 71.3562 117.604 73.364V180.923C117.604 183.08 116.756 185.15 115.247 186.675C113.737 188.2 111.69 189.057 109.555 189.057C107.42 189.057 105.373 188.2 103.863 186.675C102.354 185.15 101.505 183.08 101.505 180.923V73.364ZM142.084 69.3305C142.084 67.1732 142.932 65.1042 144.441 63.5788C145.951 62.0533 147.998 61.1963 150.133 61.1963C152.268 61.1963 154.315 62.0533 155.825 63.5788C157.334 65.1042 158.183 67.1732 158.183 69.3305V186.301C158.183 188.458 157.334 190.528 155.825 192.053C154.315 193.578 152.268 194.435 150.133 194.435C147.998 194.435 145.951 193.578 144.441 192.053C142.932 190.528 142.084 188.458 142.084 186.301V69.3305ZM181.998 73.364C181.998 71.2067 182.845 69.1377 184.355 67.6123C185.865 66.0868 187.912 65.2298 190.047 65.2298C192.182 65.2298 194.229 66.0868 195.738 67.6123C197.248 69.1377 198.096 71.2067 198.096 73.364V180.923C198.096 183.08 197.248 185.15 195.738 186.675C194.229 188.2 192.182 189.057 190.047 189.057C187.912 189.057 185.865 188.2 184.355 186.675C182.845 185.15 181.998 183.08 181.998 180.923V73.364ZM240.737 28.9958H59.2637C55.3096 28.9692 51.3891 29.7311 47.7266 31.2378C44.0642 32.7445 40.7318 34.9665 37.9204 37.7765C35.1088 40.5864 32.8734 43.9292 31.3421 47.6134C29.8107 51.2976 29.0135 55.2509 28.9961 59.2468V240.753C29.0135 244.749 29.8107 248.702 31.3421 252.386C32.8734 256.071 35.1088 259.413 37.9204 262.223C40.7318 265.033 44.0642 267.256 47.7266 268.762C51.3891 270.269 55.3096 271.031 59.2637 271.004H240.737C244.685 271.031 248.6 270.271 252.259 268.768C255.917 267.266 259.246 265.05 262.057 262.247C264.867 259.444 267.104 256.11 268.639 252.433C270.175 248.757 270.978 244.811 271.004 240.82V59.2468C270.987 55.2565 270.192 51.3088 268.665 47.629C267.138 43.9492 264.908 40.6094 262.104 37.8003C259.299 34.9913 255.975 32.7679 252.32 31.2572C248.665 29.7465 244.752 28.9781 240.803 28.9958" fill="black"/>
</svg>
