<svg width="300" height="300" viewBox="0 0 300 300" fill="none" xmlns="http://www.w3.org/2000/svg">
<path d="M214.963 106.66V76.4774C218.951 74.6145 222.329 71.6566 224.701 67.9482C227.074 64.2398 228.344 59.9337 228.363 55.5314V54.8269C228.347 48.6747 225.895 42.7793 221.545 38.429C217.195 34.0787 211.299 31.6275 205.147 31.6109H204.443C198.29 31.6275 192.395 34.0787 188.045 38.429C183.694 42.7793 181.243 48.6747 181.227 54.8269V55.5314C181.246 59.9337 182.516 64.2398 184.889 67.9482C187.261 71.6566 190.638 74.6145 194.627 76.4774V106.66C183.159 108.413 172.358 113.166 163.318 120.436L80.4415 55.9541C81.0314 53.827 81.347 51.6332 81.3808 49.426C81.387 44.2461 79.857 39.1806 76.9843 34.8702C74.1116 30.5598 70.0252 27.198 65.2419 25.21C60.4586 23.222 55.1932 22.697 50.1116 23.7015C45.03 24.706 40.3603 27.1948 36.6931 30.8532C33.026 34.5116 30.526 39.1753 29.5094 44.2545C28.4928 49.3338 29.0051 54.6004 30.9817 59.3884C32.9582 64.1765 36.3102 68.2709 40.6138 71.1538C44.9173 74.0368 49.9791 75.5789 55.1591 75.5851C59.709 75.5682 64.1742 74.3533 68.1055 72.0628L149.588 135.496C142.249 146.568 138.42 159.597 138.602 172.88C138.783 186.163 142.967 199.082 150.606 209.95L125.809 234.747C123.818 234.113 121.745 233.776 119.657 233.745C115.399 233.745 111.238 235.007 107.698 237.373C104.158 239.738 101.399 243.1 99.7698 247.033C98.1406 250.966 97.7144 255.294 98.5449 259.47C99.3755 263.645 101.426 267.481 104.436 270.491C107.446 273.501 111.282 275.551 115.457 276.382C119.633 277.213 123.961 276.786 127.894 275.157C131.827 273.528 135.189 270.769 137.554 267.229C139.919 263.689 141.182 259.528 141.182 255.27C141.153 253.181 140.816 251.108 140.18 249.118L164.711 224.587C172.719 230.703 182.018 234.909 191.899 236.884C201.78 238.858 211.982 238.549 221.725 235.98C231.468 233.41 240.496 228.649 248.118 222.058C255.74 215.468 261.756 207.223 265.707 197.953C269.657 188.684 271.437 178.634 270.91 168.571C270.384 158.508 267.566 148.699 262.67 139.892C257.775 131.084 250.932 123.512 242.664 117.753C234.396 111.993 224.921 108.199 214.963 106.66V106.66ZM204.803 205.942C198.09 205.942 191.528 203.952 185.947 200.222C180.366 196.493 176.016 191.192 173.447 184.991C170.878 178.789 170.206 171.965 171.515 165.381C172.825 158.798 176.057 152.75 180.804 148.004C185.55 143.257 191.598 140.025 198.181 138.715C204.765 137.406 211.589 138.078 217.791 140.647C223.992 143.216 229.293 147.566 233.022 153.147C236.752 158.728 238.742 165.29 238.742 172.003C238.742 181.004 235.166 189.637 228.802 196.002C222.437 202.366 213.804 205.942 204.803 205.942" fill="#FF7A59"/>
</svg>
