<svg width="300" height="300" viewBox="0 0 300 300" fill="none" xmlns="http://www.w3.org/2000/svg">
<path d="M136.119 44.7098L39.8828 84.6168C34.4634 86.7517 34.6276 94.4703 40.0471 96.6052L136.776 134.87C145.316 138.319 154.677 138.319 163.217 134.87L259.946 96.6052C265.365 94.4703 265.365 86.9159 259.946 84.6168L163.709 44.7098C154.841 41.0968 144.988 41.0968 136.119 44.7098Z" fill="#FCB400"/>
<path d="M158.461 155.736V251.48C158.461 256.079 163.059 259.199 167.329 257.557L275.061 215.679C277.525 214.694 279.167 212.394 279.167 209.603V113.859C279.167 109.26 274.569 106.14 270.299 107.782L162.567 149.66C160.103 150.81 158.461 153.109 158.461 155.736Z" fill="#18BFFF"/>
<path d="M133.329 160.66L101.305 176.098L98.0202 177.74L30.5233 210.092C26.2534 212.227 20.834 209.107 20.834 204.345V114.513C20.834 112.871 21.6551 111.393 22.9689 110.243C23.4616 109.75 23.9543 109.422 24.6112 108.929C26.2534 107.944 28.5526 107.78 30.5233 108.437L132.836 149C137.927 150.971 138.42 158.197 133.329 160.66Z" fill="#F82B60"/>
<path opacity="0.25" d="M133.329 160.633L101.305 176.07L22.9688 109.887C23.4614 109.394 23.9541 109.066 24.611 108.737C26.2533 107.752 28.5524 107.588 30.5231 108.245L132.836 148.809C137.927 150.943 138.42 158.169 133.329 160.633Z" fill="black"/>
</svg>
