<svg width="300" height="300" viewBox="0 0 300 300" fill="none" xmlns="http://www.w3.org/2000/svg">
<path fill-rule="evenodd" clip-rule="evenodd" d="M65.8893 63.2363C74.247 69.9787 77.27 69.4464 92.9184 68.3818L240.334 59.5102C243.535 59.5102 240.867 56.3164 239.8 55.9616L215.261 38.3959C210.637 34.8472 204.236 30.5889 192.322 31.6535L49.7074 42.1219C44.5505 42.6542 43.4836 45.3157 45.6175 47.2674L65.8893 63.2363ZM74.7805 97.4805V252.201C74.7805 260.54 78.8704 263.556 88.2951 263.024L250.292 253.62C259.717 253.088 260.784 247.41 260.784 240.668V87.0121C260.784 80.2697 258.116 76.5436 252.426 77.0759L83.1382 87.0121C76.9144 87.5444 74.7805 90.7381 74.7805 97.4805ZM234.644 105.82C235.71 110.433 234.644 115.224 230.02 115.756L222.196 117.353V231.619C215.439 235.167 209.215 237.297 203.88 237.297C195.522 237.297 193.389 234.635 187.165 226.828L136.129 146.807V224.167L152.311 227.715C152.311 227.715 152.311 237.119 139.33 237.119L103.41 239.248C102.343 237.119 103.41 231.974 106.966 230.909L116.391 228.248V126.047L103.41 124.982C102.343 120.369 105.01 113.627 112.301 113.095L150.889 110.433L204.058 191.342V119.837L190.543 118.24C189.476 112.562 193.744 108.304 198.901 107.772L234.644 105.82ZM37.7932 27.9274L186.276 17.1041C204.414 15.5072 209.215 16.5718 220.596 24.9111L267.897 58.0907C275.721 63.7686 278.388 65.3655 278.388 71.5756V253.798C278.388 265.153 274.298 271.896 259.717 272.96L87.4059 283.429C76.3809 283.961 71.224 282.364 65.5337 275.089L30.5025 229.844C24.2787 221.505 21.6113 215.295 21.6113 208.02V46.0254C21.6113 36.6215 25.8791 28.992 37.7932 27.9274Z" fill="black"/>
</svg>
