<svg width="300" height="300" viewBox="0 0 300 300" fill="none" xmlns="http://www.w3.org/2000/svg">
<path d="M108.995 161.481V190.139C130.789 190.139 151.725 181.73 167.169 166.801C182.613 151.871 191.365 131.45 191.365 110.343H161.849C161.849 123.9 156.186 136.942 146.405 146.552C136.452 155.99 123.067 161.481 108.995 161.481Z" fill="#3BE081"/>
<path d="M108.98 240.42C95.08 240.42 81.6949 235.1 71.9134 225.49C62.132 215.881 56.4691 203.01 56.4691 189.454C56.4691 175.897 61.9604 163.026 71.9134 153.417C81.6949 143.807 95.08 138.487 108.98 138.487V110.001C98.1689 110.001 87.5294 112.06 77.748 116.007C67.7949 119.954 58.8715 125.788 51.1493 133.167C43.5987 140.546 37.421 149.298 33.3025 158.908C29.184 168.518 27.1247 178.814 26.9531 189.282C26.9531 199.75 29.0124 210.046 33.1309 219.656C37.2494 229.266 43.2555 238.018 50.8061 245.397C58.3567 252.775 67.4517 258.61 77.4048 262.557C87.3578 266.504 97.9973 268.563 108.637 268.563H108.808V240.42H108.98Z" fill="#0037FF"/>
<path d="M108.995 240.433V268.92C130.617 268.92 151.553 260.511 166.826 245.753C182.099 230.995 190.85 210.746 190.85 189.638H161.506C161.506 203.195 156.015 216.065 146.062 225.675C136.28 234.942 122.895 240.262 108.995 240.433Z" fill="#00CCFF"/>
<path d="M108.995 81.8752V110.362C130.617 110.362 151.553 101.953 166.826 87.195C182.099 72.2654 190.85 52.1877 190.85 31.0803H161.506C161.506 44.6371 156.015 57.5074 146.062 67.1172C136.28 76.3839 122.895 81.8752 108.995 81.8752Z" fill="#861DFF"/>
<path d="M191.191 81.8752V110.362C212.814 110.362 233.749 101.953 249.022 87.195C264.295 72.2654 273.047 52.1877 273.047 31.0803H243.702C243.702 44.6371 238.211 57.5074 228.258 67.1172C218.476 76.3839 205.263 81.8752 191.191 81.8752Z" fill="#FF8110"/>
</svg>
