<svg width="300" height="300" viewBox="0 0 300 300" fill="none" xmlns="http://www.w3.org/2000/svg">
<path d="M199.065 53.3051V243.794C199.065 265.109 213.785 276.986 229.371 276.986C243.802 276.986 259.676 266.884 259.676 243.794V54.7482C259.676 35.2086 245.245 23 229.371 23C213.497 23 199.065 36.4641 199.065 53.3051Z" fill="#F9AB00"/>
<path d="M119.68 149.993V243.794C119.68 265.109 134.399 276.986 149.984 276.986C164.416 276.986 180.29 266.884 180.29 243.794V151.436C180.29 131.896 165.859 119.687 149.984 119.687C134.11 119.687 119.68 133.152 119.68 149.993Z" fill="#E37400"/>
<path d="M70.6295 277C87.3666 277 100.935 263.432 100.935 246.695C100.935 229.958 87.3666 216.39 70.6295 216.39C53.8924 216.39 40.3242 229.958 40.3242 246.695C40.3242 263.432 53.8924 277 70.6295 277Z" fill="#E37400"/>
</svg>
