<svg width="300" height="300" viewBox="0 0 300 300" fill="none" xmlns="http://www.w3.org/2000/svg">
<path d="M135.084 77.421C134.386 76.4562 133.592 75.9473 132.707 75.9473C131.979 75.9473 131.317 76.2865 130.887 76.5781C124.181 82.102 115.009 105.486 107.489 136.307L114.144 136.386C127.291 136.54 140.864 136.704 154.284 136.922C150.75 122.805 147.402 110.707 144.338 100.937C139.857 86.661 136.833 80.2677 135.084 77.421Z" fill="#10069F"/>
<path d="M150 18C80.4602 18 24.0879 77.0979 24.0879 150C24.0879 222.902 80.4602 282 150 282C219.54 282 275.913 222.902 275.913 150C275.913 77.0979 219.54 18 150 18ZM240.541 152.396L240.511 152.423C240.374 152.539 240.238 152.645 240.091 152.751C240.045 152.783 240 152.82 239.949 152.852C239.853 152.916 239.752 152.979 239.656 153.038C239.565 153.096 239.474 153.149 239.383 153.202L239.368 153.213C238.442 153.722 237.386 154.013 236.268 154.013C236.177 154.013 176.624 154.013 176.624 154.013C177.099 156.086 177.62 158.44 178.186 161C181.453 175.796 190.141 215.104 199.364 215.104L199.546 215.11L199.647 215.094H199.824C207.03 215.094 210.706 204.173 218.767 180.244L218.863 179.952C220.157 176.109 221.619 171.772 223.201 167.187L223.606 166.015C224.016 164.87 225.072 164.054 226.311 164.054C227.904 164.054 229.199 165.411 229.199 167.081C229.199 167.383 229.153 167.674 229.077 167.95L228.744 169.127C227.904 171.974 227.009 175.854 225.978 180.344C221.174 201.215 213.917 232.747 195.298 232.747H195.162C183.132 232.646 175.931 212.485 172.857 203.876C167.107 187.777 162.758 170.622 158.561 154.008H103.655L92.2576 192.251L92.0907 192.113C91.049 193.831 89.2185 194.933 87.2008 194.933C84.0202 194.933 81.416 192.219 81.4008 188.885L81.4109 188.678L82.0986 184.352C83.6713 174.524 85.5574 164.324 87.7116 154.013H64.5316L64.4456 153.923C60.2384 153.287 57.0072 149.396 57.0072 144.858C57.0072 140.41 60.0108 136.62 64.1472 135.851C64.5265 135.798 65.2951 135.729 66.8577 135.729C67.1914 135.729 67.5656 135.729 67.9853 135.74C75.3327 135.872 83.1302 135.994 91.6811 136.111C103.782 84.562 117.799 58.3952 133.348 58.321C150.031 58.321 162.409 98.1437 172.316 137.102L172.356 137.256C192.709 137.685 214.403 138.306 235.494 139.891L236.379 139.976C236.718 139.981 237.052 140.018 237.375 140.071L237.497 140.082C237.532 140.087 237.568 140.097 237.603 140.108C237.623 140.113 237.638 140.119 237.659 140.119C240.728 140.765 243.004 143.586 243.004 146.978C243.004 149.152 242.043 151.108 240.541 152.396Z" fill="#10069F"/>
</svg>
