<svg width="300" height="300" viewBox="0 0 300 300" fill="none" xmlns="http://www.w3.org/2000/svg">
<g clip-path="url(#clip0_424_867)">
<path fill-rule="evenodd" clip-rule="evenodd" d="M229.711 199.731L208.687 185.864L191.149 215.16L170.751 209.195L152.791 236.608L153.711 245.237L251.363 227.244L245.691 166.23L229.711 199.731ZM138.643 173.425L154.31 171.271C156.845 172.41 158.61 172.844 161.65 173.617C166.383 174.851 171.864 176.034 179.979 171.944C181.868 171.008 185.802 167.411 187.392 165.36L251.584 153.715L258.133 232.969L148.16 252.789L138.643 173.425ZM257.885 144.867L251.549 146.074L239.376 20.3047L31.9551 44.3561L57.5086 251.724L81.7873 248.2C79.8484 245.432 76.8294 242.082 71.6739 237.795C64.5234 231.854 67.0525 221.764 71.2696 215.393C76.8501 204.627 105.603 190.946 103.974 173.738C103.389 167.482 102.395 159.337 96.587 153.756C96.3686 156.073 96.7611 158.304 96.7611 158.304C96.7611 158.304 94.3767 155.261 93.1874 151.112C92.0069 149.521 91.0803 149.014 89.8261 146.889C88.9319 149.347 89.0499 152.198 89.0499 152.198C89.0499 152.198 87.0993 147.588 86.7835 143.699C85.6267 145.44 85.3345 148.748 85.3345 148.748C85.3345 148.748 82.7995 141.483 83.3779 137.569C82.2211 134.164 78.7919 127.406 79.7628 112.045C86.0929 116.481 100.028 115.427 105.458 107.424C107.261 104.774 108.495 97.5378 104.558 83.2811C102.029 74.1386 95.7666 60.5252 93.3261 55.3608L93.0339 55.5703C94.3206 59.7313 96.9736 68.4548 97.9917 72.6837C101.073 85.5121 101.899 89.9771 100.453 95.8911C99.2224 101.032 96.2713 104.396 88.7902 108.156C81.3092 111.927 71.3817 102.749 70.7531 102.242C63.4846 96.4518 57.8627 87.0054 57.2342 82.4164C56.582 77.3936 60.1292 74.3776 61.9176 70.2697C59.359 71.0016 56.5052 72.3 56.5052 72.3C56.5052 72.3 59.9108 68.7764 64.1102 65.728C65.8484 64.577 66.8695 63.8452 68.7021 62.3224C66.0491 62.2781 63.8948 62.3548 63.8948 62.3548C63.8948 62.3548 68.3185 59.9645 72.9045 58.2233C69.5491 58.0758 66.3383 58.1997 66.3383 58.1997C66.3383 58.1997 76.2097 53.7849 84.0065 50.5446C89.3686 48.346 94.6068 48.9952 97.5491 53.2507C101.412 58.8253 105.47 61.8532 114.069 63.7301C119.349 61.3898 120.954 60.1858 127.588 58.3797C133.429 51.9581 138.015 51.1259 138.015 51.1259C138.015 51.1259 135.739 53.2124 135.131 56.491C138.442 53.8823 142.072 51.7043 142.072 51.7043C142.072 51.7043 140.668 53.4396 139.357 56.1959L139.661 56.6474C143.524 54.3308 148.066 52.5041 148.066 52.5041C148.066 52.5041 146.767 54.1449 145.245 56.2697C148.157 56.2461 154.066 56.3936 156.359 56.6533C169.895 56.9514 172.705 42.1959 177.899 40.3456C184.403 38.0231 187.31 36.6183 198.394 47.5049C207.905 56.8511 215.336 73.5808 211.647 77.3287C208.555 80.4392 202.452 76.1158 195.688 67.6845C192.114 63.2195 189.411 57.943 188.145 51.2351C187.076 45.5749 182.918 42.2904 182.918 42.2904C182.918 42.2904 185.332 47.6554 185.332 52.3949C185.332 54.983 185.657 64.6597 189.806 70.0897C189.396 70.8835 189.204 74.0176 188.75 74.6167C183.922 68.7823 173.555 64.6065 171.864 63.3759C177.586 68.0652 190.739 78.8367 195.791 89.1597C200.569 98.9219 197.754 107.87 200.17 110.186C200.858 110.85 210.446 122.796 212.291 128.799C215.507 139.26 212.482 150.253 208.271 157.073L196.511 158.906C194.791 158.428 193.631 158.189 192.087 157.295C192.937 155.789 194.628 152.036 194.646 151.263L193.982 150.097C190.323 155.282 184.19 160.316 179.097 163.209C172.43 166.986 164.746 166.405 159.743 164.855C145.546 160.476 132.121 150.882 128.884 148.362C128.884 148.362 128.783 150.374 129.394 150.826C132.974 154.863 141.175 162.167 149.102 167.257L132.204 169.117L140.192 231.32C136.651 231.827 136.099 232.075 132.222 232.627C128.804 220.554 122.267 212.672 115.123 208.08C108.822 204.031 100.131 203.119 91.8122 204.766L91.278 205.386C97.0621 204.784 103.891 205.622 110.906 210.063C117.791 214.416 123.339 225.66 125.381 232.429C127.996 241.082 129.805 250.337 122.766 260.146C117.758 267.12 103.138 270.974 91.3282 262.637C94.4829 267.71 98.7472 271.859 104.487 272.641C113.01 273.798 121.099 272.319 126.668 266.603C131.422 261.716 133.942 251.496 133.278 240.734L140.8 239.642L143.515 258.96L268.046 243.965L257.885 144.867ZM182.122 92.4059C181.773 93.1997 181.227 93.7191 182.048 96.3013L182.098 96.4489L182.228 96.7823L182.57 97.5555C184.049 100.577 185.672 103.428 188.384 104.883C189.086 104.765 189.812 104.685 190.565 104.647C193.111 104.535 194.72 104.939 195.741 105.488C195.832 104.98 195.853 104.237 195.797 103.142C195.599 99.3144 196.555 92.8043 189.198 89.378C186.421 88.0884 182.526 88.4868 181.227 90.0951C181.463 90.1247 181.676 90.1748 181.841 90.2309C183.804 90.9185 182.473 91.5943 182.122 92.4059ZM202.741 128.12C201.776 127.589 197.267 127.798 194.097 128.176C188.059 128.887 181.54 130.983 180.112 132.098C177.515 134.105 178.695 137.605 180.614 139.042C185.993 143.061 190.709 145.756 195.688 145.101C198.745 144.699 201.439 139.859 203.349 135.468C204.656 132.443 204.656 129.179 202.741 128.12ZM149.285 97.1453C150.988 95.5281 140.803 93.4033 132.9 98.792C127.072 102.767 126.886 111.29 132.466 116.121C133.024 116.599 133.485 116.938 133.915 117.216C135.544 116.448 137.401 115.672 139.537 114.979C143.146 113.807 146.148 113.202 148.615 112.881C149.795 111.561 151.168 109.239 150.825 105.034C150.359 99.3291 146.036 100.235 149.285 97.1453Z" fill="#632CA6"/>
</g>
<defs>
<clipPath id="clip0_424_867">
<rect width="230" height="246.175" fill="white" transform="translate(35 26.9126)"/>
</clipPath>
</defs>
</svg>
