<svg width="300" height="300" viewBox="0 0 300 300" fill="none" xmlns="http://www.w3.org/2000/svg">
<g clip-path="url(#clip0_423_736)">
<path d="M179.999 150.053C180.003 158.707 178.442 167.29 175.391 175.388C167.29 178.439 158.705 180.002 150.049 180.003H149.947C141.034 179.992 132.493 178.363 124.612 175.392C121.56 167.293 119.997 158.708 120 150.053V149.948C119.996 141.296 121.555 132.714 124.603 124.617C132.704 121.561 141.291 119.997 149.948 120.001H150.05C158.706 119.997 167.293 121.56 175.392 124.616C178.443 132.713 180.004 141.295 180 149.947V150.052L179.999 150.053ZM268.333 130.001H198.287L247.814 80.4701C243.927 75.0093 239.59 69.8825 234.85 65.1429V65.1392C230.11 60.4047 224.985 56.0723 219.527 52.1867L169.996 101.718V31.6714C163.408 30.5632 156.74 30.0044 150.06 30.0007L149.936 30.0007C143.141 30.0045 136.486 30.582 130 31.6714V101.718L80.4694 52.1867C75.0107 56.0712 69.8874 60.4067 65.1534 65.1476L65.1272 65.1663C60.3952 69.9 56.065 75.0189 52.1812 80.4701L101.716 130.001H31.6706C31.6706 130.001 30 143.157 30 149.959V150.042C30 156.844 30.5766 163.511 31.6706 170H101.717L52.1822 219.531C59.9744 230.466 69.5344 240.026 80.4694 247.818L130 198.284V268.334C136.581 269.436 143.241 269.994 149.913 270.001H150.082C156.755 269.995 163.415 269.437 169.995 268.334V198.284L219.531 247.818C224.987 243.932 230.111 239.598 234.85 234.862L234.861 234.851C239.595 230.111 243.927 224.987 247.814 219.531L198.279 170H268.333C269.423 163.522 269.992 156.875 270 150.088V149.913C269.992 143.126 269.423 136.479 268.333 130.001Z" fill="#FF4A00"/>
</g>
<defs>
<clipPath id="clip0_423_736">
<rect width="240" height="240" fill="white" transform="translate(30 30)"/>
</clipPath>
</defs>
</svg>
