<svg width="156" height="80" viewBox="0 0 156 80" fill="none" xmlns="http://www.w3.org/2000/svg">
<g clip-path="url(#clip0_419_13235)">
<path d="M106.454 36.7847C105.038 36.7847 104.136 37.7083 103.857 38.9323H108.9C108.728 37.5799 107.784 36.7847 106.454 36.7847Z" fill="#F72717"/>
<path d="M92.9774 37.3218C91.1753 37.3218 90.0371 38.567 90.0371 40.3071C90.0371 42.0247 91.1965 43.3136 92.9774 43.3136C94.7583 43.3136 95.96 42.0895 95.96 40.3071C95.96 38.5246 94.7583 37.3218 92.9774 37.3218Z" fill="#F72717"/>
<path d="M129.369 34.4652C126.663 34.4652 124.554 35.5478 124.21 38.3564C124.184 38.3576 124.227 38.3552 124.202 38.3564C123.35 25.6247 113.314 15.5591 100.379 15.5591C90.1568 15.5591 81.4054 21.8489 77.7672 30.7707H86.4338L85.983 33.6912H79.1808V36.7837H85.3391L84.8672 39.5969H79.1808V41.4006C79.1808 42.4962 79.6528 43.0111 80.5544 43.0111H86.3702L85.8982 45.9316H79.461C79.1467 45.9316 78.8489 45.9033 78.5652 45.8515V45.8538C78.5652 45.8538 77.4506 45.7325 76.7608 44.8336C76.7443 44.8124 76.463 44.479 76.3241 43.9288C76.2876 43.7851 76.2853 43.7757 76.2559 43.6637C76.3018 44.0278 76.3794 44.5155 76.4148 44.6969C76.6101 45.716 76.8597 46.5783 76.8809 46.6396C79.7729 56.9102 89.194 64.4406 100.379 64.4406C111.82 64.4406 121.485 56.5639 124.135 45.9339H120.853V39.9633C120.853 38.3529 120.23 37.322 118.643 37.322C117.055 37.322 116.432 38.3529 116.432 39.9633V45.9339H113.149V39.1469C113.149 35.9036 115.509 34.4652 118.643 34.4652C121.776 34.4652 124.136 35.9036 124.136 39.1469L124.135 45.9339H127.438V39.9633C127.438 38.3529 127.867 37.322 129.433 37.322C129.926 37.322 130.527 37.4728 130.741 37.58L131.364 34.702C130.999 34.6584 130.076 34.4652 129.369 34.4652ZM99.266 39.6417C99.266 43.7438 96.8413 46.1495 92.8287 46.1495C89.1163 46.1495 86.6057 43.6578 86.6057 40.3073C86.6057 36.806 88.988 34.4652 92.5498 34.4652C94.1811 34.4652 95.3817 35.1096 95.9832 35.754V30.7707H99.266V39.6417ZM107.549 43.6791C108.514 43.6791 109.41 43.3998 110.247 43.0134L109.974 45.6123C109.03 45.9987 107.893 46.1495 106.754 46.1495C102.977 46.1495 100.317 43.9371 100.317 40.1789C100.317 36.9144 102.699 34.4663 106.347 34.4663C110.467 34.4663 112.528 37.0864 112.442 41.1249H103.945C104.265 42.9698 106.025 43.6791 107.549 43.6791Z" fill="#F72717"/>
<path d="M136.815 34.4653C133.168 34.4653 130.785 36.9134 130.785 40.1779C130.785 43.936 133.446 46.1485 137.222 46.1485C138.359 46.1485 139.497 45.9977 140.442 45.6113L140.714 43.0124C139.877 43.3988 138.982 43.678 138.016 43.678C136.493 43.678 134.733 42.9688 134.41 41.1216H142.909C142.995 37.0854 140.935 34.4653 136.815 34.4653ZM134.326 38.9327C134.605 37.7086 135.506 36.785 136.922 36.785C138.252 36.785 139.196 37.5802 139.368 38.9327H134.326Z" fill="#F72717"/>
<path d="M152.65 30.7705V35.7539C152.05 35.1094 150.848 34.465 149.217 34.465C145.655 34.465 143.272 36.8059 143.272 40.3072C143.272 43.6577 145.783 46.1494 149.496 46.1494C153.508 46.1494 155.933 43.7437 155.933 39.6416V30.7717H152.65V30.7705ZM149.646 43.3137C147.865 43.3137 146.706 42.0249 146.706 40.3072C146.706 38.5671 147.843 37.3219 149.646 37.3219C151.427 37.3219 152.629 38.5247 152.629 40.3072C152.629 42.0897 151.427 43.3137 149.646 43.3137Z" fill="#F72717"/>
<path fill-rule="evenodd" clip-rule="evenodd" d="M63.487 19.8193C63.8245 19.8193 64.098 20.0712 64.098 20.3819V59.5841C64.098 59.8948 63.8245 60.1466 63.487 60.1466C63.1495 60.1466 62.876 59.8948 62.876 59.5841V20.3819C62.876 20.0712 63.1495 19.8193 63.487 19.8193Z" fill="#F72717"/>
<path d="M43.6306 40.6244V33.9664L46.5495 32.7888V36.3049H48.5135L48.1203 38.4941H46.5116V40.738C46.5116 42.9188 47.338 44.454 48.2149 45.6884C48.6502 43.863 48.8816 41.9598 48.8816 40.002C48.8816 26.5009 37.9381 15.5591 24.4397 15.5591C13.4816 15.5591 4.20577 22.7744 1.10612 32.713H10.199L9.8436 35.3313H6.04579V45.9197H2.94194V35.3313H0.447914C0.155613 36.8433 0 38.4037 0 39.9999C0 53.4989 10.9434 64.4406 24.4397 64.4406C35.8962 64.4406 45.5106 56.5566 48.1561 45.9176H45.2751C44.7725 45.0407 43.6117 43.4508 43.6306 40.6244ZM13.755 45.9197H10.8362V36.1178H13.755V45.9197ZM13.755 34.8644H10.8362V32.713H13.755V34.8644ZM20.4527 43.7305C21.2013 43.7305 21.8174 43.5244 22.2864 43.2994L22.0235 45.6758C21.4242 45.9744 20.583 46.1237 19.8533 46.1237C16.7663 46.1237 14.634 44.1217 14.634 40.9988C14.634 37.9116 16.7284 35.9285 19.8344 35.9285C20.9763 35.9285 21.8553 36.1535 22.7532 36.5636L21.931 38.7717C21.4999 38.5088 20.9027 38.3049 20.2655 38.3049C18.6946 38.3049 17.6642 39.3332 17.6642 40.9988C17.6642 42.6454 18.7493 43.7495 20.4527 43.7305ZM29.6191 45.9197C29.4698 45.5643 29.2448 44.9839 29.0577 44.4035L28.6266 42.9629C28.4016 42.1954 28.103 41.8778 27.3732 41.8778H26.1389V45.9176H23.2768V32.7109H26.1389V39.9893H26.4564L29.1691 36.1157H32.3487L29.1502 40.1555H29.3184C30.5907 40.1555 30.965 40.8663 31.2825 41.9136L31.8251 43.7284C32.0122 44.4014 32.4055 45.3561 32.7041 45.9176H29.6191V45.9197ZM43.0124 41.7285H35.6039C35.8857 43.3373 37.4187 43.9556 38.7478 43.9556C39.5889 43.9556 40.3375 43.7684 41.0672 43.4319L40.8612 45.64C40.0389 45.9765 39.0464 46.1069 38.0559 46.1069C34.7628 46.1069 32.4433 44.1806 32.4433 40.9062C32.4433 38.063 34.5189 35.9306 37.7005 35.9306C41.2922 35.9306 43.0881 38.2123 43.0124 41.7285Z" fill="#F72717"/>
<path d="M37.793 37.9492C36.5586 37.9492 35.7721 38.7546 35.5303 39.8208H39.9274C39.776 38.6411 38.9538 37.9492 37.793 37.9492Z" fill="#F72717"/>
<path d="M52.0629 31.2012C53.5392 31.2012 54.7471 32.411 54.7471 33.8897C54.7471 35.3683 53.5392 36.5781 52.0629 36.5781C50.5865 36.5781 49.3701 35.3683 49.3701 33.8897C49.3701 32.411 50.5865 31.2012 52.0629 31.2012ZM52.0629 35.9636C53.2026 35.9636 54.1229 35.0312 54.1229 33.8897C54.1229 32.7481 53.2026 31.8157 52.0629 31.8157C50.9231 31.8157 49.9922 32.7481 49.9922 33.8897C49.9922 35.0312 50.9231 35.9636 52.0629 35.9636ZM52.3995 32.4771C52.9938 32.4771 53.2622 32.9188 53.2622 33.3306C53.2622 33.7808 52.9086 34.0796 52.5443 34.0881C52.9278 34.1073 53.0045 34.5682 53.177 34.9608C53.226 35.0568 53.3112 35.2382 53.3688 35.2979H52.7084C52.67 35.2488 52.6231 35.1336 52.5741 34.9992C52.4314 34.6066 52.3824 34.2695 51.999 34.2695H51.8541C51.6815 34.2695 51.6347 34.1926 51.5963 34.1265V35.2872H51.0211V32.4771H52.3995ZM51.5942 33.544C51.5942 33.736 51.6602 33.8128 51.95 33.8128H52.18C52.4953 33.8128 52.6785 33.6507 52.6785 33.3818C52.6785 33.017 52.4761 32.9487 52.1417 32.9487H51.5963V33.544H51.5942Z" fill="#F72717"/>
</g>
<defs>
<clipPath id="clip0_419_13235">
<rect width="155.932" height="48.8816" fill="white" transform="translate(0 15.5591)"/>
</clipPath>
</defs>
</svg>
