<svg width="192" height="80" viewBox="0 0 192 80" fill="none" xmlns="http://www.w3.org/2000/svg">
<path d="M174.261 41.8439L174.282 41.8371C174.469 41.7655 174.681 41.7981 174.842 41.9185C179.139 45.1639 187.738 41.2056 190.218 38.6665C190.978 37.8885 191.303 36.8338 191.119 35.7694C190.93 34.7017 190.261 33.813 189.281 33.328L188.737 33.0643L188.756 33.1163C187.354 32.6769 185.786 33.2661 184.729 34.6723C184.539 34.9197 184.331 35.2062 184.104 35.5187C182.636 37.5369 180.178 40.9191 177.924 41.2674C177.288 41.365 176.716 41.2218 176.172 40.8279C175.958 40.6717 175.869 40.3917 175.954 40.1476L175.961 40.128C176.034 39.9197 176.192 39.7667 176.38 39.7179C181.57 38.3475 183.768 29.2817 183.306 25.8214C183.164 24.7505 182.53 23.839 181.574 23.3214C180.61 22.8006 179.492 22.7648 178.498 23.2238L178.43 23.2563C176.901 23.9562 176.215 25.6945 176.716 27.5825C176.796 27.882 176.895 28.2205 177 28.5883C177.901 31.7394 179.406 37.0128 176.414 37.9862C176.119 38.0805 175.803 37.9698 175.634 37.7257L175.615 37.6963C175.492 37.5205 175.473 37.2927 175.556 37.0941C177.595 32.2309 171.827 24.9392 168.847 23.1652C167.914 22.6085 166.802 22.5271 165.792 22.9438C164.776 23.3605 164.047 24.2068 163.79 25.2615L163.772 25.3331C163.376 26.951 164.324 28.5655 166.129 29.35C166.415 29.477 166.749 29.6137 167.108 29.7634C170.188 31.0428 175.334 33.1847 174.146 36.1339C174.044 36.3877 173.776 36.5473 173.476 36.531C173.249 36.5175 173.044 36.3944 172.943 36.2055C170.389 31.5668 161.004 31.4757 157.725 32.6769C156.702 33.0512 155.947 33.8618 155.647 34.9002C155.345 35.9451 155.557 37.0324 156.233 37.8949L156.276 37.9503C157.308 39.2654 159.177 39.5421 160.925 38.6371C161.202 38.4939 161.516 38.3246 161.859 38.1391C164.809 36.5506 169.748 33.891 171.312 36.7166C171.437 36.9412 171.401 37.2276 171.22 37.4262L171.2 37.4489C171.046 37.6117 170.82 37.6866 170.6 37.6476C165.344 36.7199 159.408 43.9139 158.312 47.2016C157.969 48.227 158.141 49.3207 158.777 50.1997C159.414 51.0818 160.411 51.5928 161.507 51.6092H161.575C161.575 51.6092 161.608 51.6092 161.621 51.6092C163.285 51.6092 164.647 50.3461 165.017 48.4483C165.076 48.1424 165.138 47.7941 165.209 47.4132C165.65 44.9328 166.39 40.7791 168.307 39.5454C168.863 39.1873 169.478 39.0929 170.184 39.2654C170.385 39.3142 170.543 39.49 170.573 39.6983L170.583 39.7537C170.613 39.9425 170.536 40.1346 170.378 40.2647C166.221 43.6827 168.211 52.8494 170.167 55.8019C170.765 56.7035 171.731 57.2537 172.824 57.3122C172.886 57.315 172.949 57.319 173.014 57.319C174.041 57.319 174.991 56.8762 175.654 56.0721L175.691 56.0266C176.76 54.7408 176.618 52.8788 175.334 51.3977C175.13 51.1633 174.895 50.8997 174.638 50.6099C172.949 48.7219 170.124 45.5578 170.342 43.3052C170.405 42.6477 170.715 42.1171 171.293 41.6776C171.467 41.5442 171.718 41.5311 171.916 41.645C172.091 41.746 172.199 41.9349 172.206 42.1464C172.309 47.4979 180.808 51.6744 184.365 52.0064C185.45 52.1073 186.49 51.7036 187.216 50.8997C187.948 50.0891 188.235 49.0148 188.004 47.9537L187.987 47.8788C187.635 46.2512 186.088 45.2062 184.104 45.2649C183.791 45.2744 183.434 45.2942 183.045 45.3137C180.505 45.4374 176.251 45.649 174.602 44.0832C174.119 43.6276 173.892 43.061 173.899 42.3482C173.899 42.1236 174.048 41.925 174.268 41.8469L174.261 41.8439Z" fill="#F2496B"/>
<path d="M0.661133 35.2022H7.02805L10.1903 43.1473C10.5924 44.16 12.0254 44.1631 12.4336 43.1527L15.6503 35.2017H21.2977L24.7895 43.3161C25.2158 44.3077 26.6306 44.2865 27.0268 43.2797L30.1951 35.2017H36.3564L28.9284 52.0748H23.1782L19.4777 43.5221C19.0545 42.5456 17.6667 42.5517 17.2526 43.5343L13.664 52.0778H8.01665L0.661133 35.2022Z" fill="#F2496B"/>
<path d="M35.2637 43.6891C35.2637 38.4196 40.0223 34.7222 47.1752 34.7222C54.3281 34.7222 58.6756 38.5889 58.6756 43.7585V44.7503H42.7613C42.1022 44.7503 41.6578 45.4334 41.9329 46.0321C42.6978 47.7039 44.6448 48.6502 47.4473 48.6502C49.7057 48.6502 51.3836 47.9669 52.342 47.0086C52.5475 46.8029 52.7199 46.5974 52.8559 46.3918L58.5033 47.2807C58.3672 47.589 58.1616 47.8974 57.9229 48.1695C55.9033 51.0113 52.2421 52.7224 47.3476 52.7224C40.1251 52.7224 35.2668 49.1278 35.2668 43.686L35.2637 43.6891ZM51.1024 41.6363C51.8945 41.6363 52.3026 40.696 51.7706 40.1126C50.8726 39.127 49.3369 38.5223 47.278 38.5223C45.2193 38.5223 43.6229 39.0998 42.6374 40.1217C42.0902 40.687 42.5225 41.6393 43.3116 41.6393H51.1054L51.1024 41.6363Z" fill="#F2496B"/>
<path d="M60.3857 28.1201H66.6136V52.0762H60.3857V28.1201Z" fill="#F2496B"/>
<path d="M69.623 28.1201H75.8509V52.0762H69.623V28.1201Z" fill="#F2496B"/>
<path d="M78.8604 28.1201H85.0882V36.0198C85.0882 36.7937 85.9951 37.211 86.5847 36.7061C88.0812 35.4242 90.0735 34.7259 92.5494 34.7259C97.4441 34.7259 100.455 37.5315 100.455 42.5288V52.0762H94.2939V43.4872C94.2939 40.6453 92.6855 39.1065 89.88 39.1065C86.8688 39.1065 85.0882 40.9538 85.0882 44.0011V52.0792H78.8604V28.1201Z" fill="#F2496B"/>
<path d="M102.615 44.7505V35.2032H108.81V43.7741C108.81 46.1776 110.742 48.1457 113.145 48.1728C116.171 48.2061 118.016 46.3529 118.016 43.2783V35.2002H124.21V52.0728H118.118V51.7886C118.118 50.7728 116.957 50.2317 116.15 50.8454C114.699 51.9518 112.831 52.5505 110.554 52.5505C105.626 52.5505 102.615 49.7449 102.615 44.7476V44.7505Z" fill="#F2496B"/>
<path d="M133.014 51.9553V52.0762H126.922V28.1201H133.15V36.0621C133.15 36.8301 134.045 37.2503 134.637 36.7575C136.224 35.4363 138.486 34.6563 141.125 34.6563C147.012 34.6563 151.05 38.3538 151.05 43.726C151.05 49.0983 146.944 52.7261 141.022 52.7261C138.579 52.7261 136.49 52.0731 134.93 50.9455C134.132 50.3681 133.014 50.9667 133.014 51.9522V51.9553ZM138.833 48.5179C142.392 48.5179 144.55 46.6706 144.55 43.726C144.55 40.7814 142.461 38.9675 138.904 38.9675C135.345 38.9675 133.05 40.851 133.05 43.7593C133.05 46.6676 135.342 48.5179 138.833 48.5179Z" fill="#F2496B"/>
</svg>
