<svg width="117" height="80" viewBox="0 0 117 80" fill="none" xmlns="http://www.w3.org/2000/svg">
<g clip-path="url(#clip0_419_13239)">
<path d="M15.1926 50.6418H6.12725C4.50181 50.6395 2.94366 49.9925 1.79462 48.8428C0.645577 47.6931 -0.000523159 46.1347 -0.00195312 44.5092V29.3585H2.87818V44.5092C2.87889 45.3709 3.22134 46.1971 3.83045 46.8066C4.43956 47.4161 5.26557 47.7591 6.12725 47.7603H15.1926V50.6418ZM89.6472 29.3552L82.1462 47.6954H81.0393L73.5382 29.3552H70.0446L78.5984 50.6418H84.5877L93.1422 29.3552H89.6472ZM63.1125 29.3552L55.6116 47.6954H54.5047L47.0036 29.3552H43.51L52.0638 50.6418H58.0531L66.6076 29.3552H63.1125ZM105.973 47.7515C102.032 47.7515 99.4857 45.7648 99.4857 42.6894V42.363C99.4857 40.1005 101.417 39.6248 103.037 39.6248H113.25C113.275 40.0343 113.275 40.4492 113.275 40.8533C113.275 44.8505 110.204 47.7515 105.973 47.7515ZM106.666 29.3552H98.1909V32.242H106.136C109.59 32.242 112.15 34.1288 112.894 37.1873H102.144C98.6768 37.1873 96.5225 38.9673 96.5225 41.8325V42.5259C96.5225 47.3022 100.374 50.6384 105.895 50.6384C112.205 50.6384 116.612 46.4304 116.612 40.4046V39.5883C116.612 33.4672 112.616 29.3545 106.669 29.3545M30.1778 32.2414C34.1188 32.2414 36.6651 34.2288 36.6651 37.3042V37.6306C36.6651 39.8931 34.7344 40.3681 33.114 40.3681H22.9004C22.8761 39.9586 22.8761 39.5437 22.8761 39.1403C22.8761 35.1431 25.9468 32.2414 30.1778 32.2414ZM30.2602 29.3545C23.9499 29.3545 19.5425 33.5625 19.5425 39.5883V40.4046C19.5425 46.5257 23.5377 50.6384 29.4851 50.6384H37.9606V47.7509H30.0108C26.5577 47.7509 23.9965 45.8648 23.2565 42.8063H34.0059C37.4733 42.8063 39.6277 41.0263 39.6277 38.1604V37.4704C39.6277 32.6935 35.7758 29.3579 30.2555 29.3579" fill="#292829"/>
</g>
<defs>
<clipPath id="clip0_419_13239">
<rect width="116.61" height="21.2839" fill="white" transform="translate(0 29.3579)"/>
</clipPath>
</defs>
</svg>
