<svg width="112" height="80" viewBox="0 0 112 80" fill="none" xmlns="http://www.w3.org/2000/svg">
<mask id="mask0_419_13242" style="mask-type:luminance" maskUnits="userSpaceOnUse" x="10" y="23" width="93" height="34">
<path d="M102.118 23.6484H10.4258V56.3519H102.118V23.6484Z" fill="white"/>
</mask>
<g mask="url(#mask0_419_13242)">
<path d="M52.9919 55.8404H46.9375V33.0923H52.9919V55.8404Z" fill="black"/>
<path d="M73.0847 33.0923L68.0608 48.351L62.7916 33.0923H56.4111L65.2135 55.8404H71.0353L79.3249 33.0923H73.0847Z" fill="black"/>
<path d="M41.9325 33.4644C41.1408 31.4797 40.0067 29.7507 38.5324 28.2774C37.0575 26.8048 35.3263 25.6648 33.3395 24.8581C31.3524 24.0521 29.1785 23.6484 26.8195 23.6484C24.4608 23.6484 22.2321 24.0521 20.2293 24.8581C18.2264 25.6648 16.4956 26.8048 15.0364 28.2774C13.5765 29.7507 12.4437 31.4797 11.6362 33.4644C10.8292 35.4492 10.4258 37.6358 10.4258 40.0235C10.4258 42.4112 10.8292 44.559 11.6369 46.5596C12.4437 48.5601 13.5772 50.2971 15.0371 51.7697C16.4963 53.243 18.2271 54.375 20.23 55.1659C22.2328 55.9568 24.429 56.3519 26.8202 56.3519C28.8124 56.3519 30.6712 56.0688 32.398 55.505L29.2106 50.2044C28.4535 50.3631 27.6567 50.4436 26.8202 50.4436C24.8642 50.4436 23.1183 50.0098 21.5807 49.1413C20.0438 48.2735 18.8327 47.056 17.9483 45.4893C17.0635 43.9233 16.6205 42.1016 16.6205 40.0235C16.6205 37.9454 17.0628 36.1237 17.9483 34.5577C18.8327 32.9918 20.0438 31.7663 21.5807 30.8828C23.1172 29.9992 24.8642 29.5567 26.8202 29.5567C28.7765 29.5567 30.5145 29.9985 32.0363 30.8828C33.5574 31.767 34.7525 32.9839 35.6226 34.5347C36.4916 36.0856 36.9264 37.9152 36.9264 40.0242C36.9264 42.1332 36.4916 43.8852 35.6226 45.467C35.315 46.0266 34.964 46.5395 34.5749 47.01L37.8197 52.4341C38.0627 52.22 38.3022 52.0009 38.5331 51.7704C40.0074 50.2978 41.1415 48.5608 41.9332 46.5603C42.7249 44.5598 43.1204 42.3818 43.1204 40.0242C43.1204 37.6667 42.7249 35.4499 41.9332 33.4651L41.9325 33.4644Z" fill="black"/>
<path d="M36.2751 55.8407L26.8213 40.1172H34.1262L43.5342 55.8407H36.2751Z" fill="#FF4719"/>
<path d="M96.846 48.3764C96.2463 49.2133 95.55 49.918 94.759 50.4905C93.8578 51.142 92.6166 51.4674 91.0332 51.4674C89.2007 51.4674 87.7733 50.9402 86.7483 49.8856C85.858 48.9698 85.3548 47.7594 85.2381 46.2573H101.978C102.04 46.0404 102.079 45.7689 102.094 45.4435C102.109 45.1181 102.118 44.7848 102.118 44.4436C102.118 42.1492 101.652 40.1099 100.721 38.3263C99.7894 36.5434 98.477 35.1397 96.7855 34.1161C95.0926 33.0925 93.0986 32.5811 90.8009 32.5811C88.5031 32.5811 86.555 33.0853 84.8628 34.0931C83.1699 35.101 81.851 36.4967 80.904 38.2796C79.9566 40.0632 79.4834 42.1334 79.4834 44.4903C79.4834 46.8471 79.9566 48.9561 80.904 50.7239C81.8503 52.4917 83.1699 53.8638 84.8628 54.8407C86.555 55.8176 88.5339 56.3061 90.8009 56.3061C93.2848 56.3061 95.4032 55.8025 97.158 54.794C98.7897 53.8566 100.106 52.5363 101.106 50.8331L96.8467 48.3764H96.846ZM86.7254 38.9074C87.7343 37.8536 89.0929 37.3256 90.8009 37.3256C92.7254 37.3256 94.1462 37.9384 95.0625 39.1631C95.5996 39.8822 95.9787 40.7284 96.2007 41.6981H85.3359C85.5409 40.5933 86.0034 39.6624 86.726 38.9067L86.7254 38.9074Z" fill="black"/>
</g>
</svg>
